<svg width="41" height="40" viewBox="0 0 41 40" fill="none" xmlns="http://www.w3.org/2000/svg">
<g id="facebook" clip-path="url(#clip0_1_2649)">
<g id="Group">
<g id="Group_2">
<path id="Vector" d="M20.5181 0C9.49011 0 0.518066 8.97204 0.518066 20C0.518066 31.0271 9.49011 40 20.5181 40C31.5452 40 40.5181 31.0271 40.5181 20C40.5181 8.97204 31.5468 0 20.5181 0ZM25.4919 20.7041H22.238V32.3016H17.4165C17.4165 32.3016 17.4165 25.9647 17.4165 20.7041H15.1245V16.6052H17.4165V13.9539C17.4165 12.0551 18.3188 9.08805 22.2823 9.08805L25.8552 9.10175V13.0806C25.8552 13.0806 23.6841 13.0806 23.262 13.0806C22.8398 13.0806 22.2396 13.2917 22.2396 14.1972V16.606H25.9132L25.4919 20.7041Z" fill="#7F3A6A"/>
</g>
</g>
</g>
<defs>
<clipPath id="clip0_1_2649">
<rect width="40" height="40" fill="white" transform="translate(0.518066)"/>
</clipPath>
</defs>
</svg>
