<svg width="41" height="40" viewBox="0 0 41 40" fill="none" xmlns="http://www.w3.org/2000/svg">
<g id="instagram" clip-path="url(#clip0_1_2657)">
<g id="Layer 2">
<g id="05.instagram">
<path id="Vector" d="M20.5179 23.1605C22.2635 23.1605 23.6785 21.7455 23.6785 20C23.6785 18.2545 22.2635 16.8395 20.5179 16.8395C18.7724 16.8395 17.3574 18.2545 17.3574 20C17.3574 21.7455 18.7724 23.1605 20.5179 23.1605Z" fill="#7F3A6A"/>
<path id="Vector_2" d="M24.5604 12.0132H16.4762C15.4293 12.0132 14.4252 12.4291 13.685 13.1693C12.9447 13.9096 12.5288 14.9136 12.5288 15.9606V24.0421C12.5288 25.089 12.9447 26.0931 13.685 26.8333C14.4252 27.5736 15.4293 27.9895 16.4762 27.9895H24.5604C25.6073 27.9895 26.6113 27.5736 27.3516 26.8333C28.0919 26.0931 28.5078 25.089 28.5078 24.0421V15.9579C28.5071 14.9115 28.0909 13.9081 27.3507 13.1684C26.6105 12.4287 25.6068 12.0132 24.5604 12.0132ZM20.5183 25.1737C19.4949 25.1742 18.4944 24.8712 17.6432 24.3031C16.7921 23.7349 16.1285 22.9271 15.7365 21.9817C15.3446 21.0364 15.2417 19.9961 15.4411 18.9923C15.6404 17.9885 16.1329 17.0664 16.8564 16.3426C17.5798 15.6188 18.5017 15.1258 19.5053 14.9259C20.509 14.7261 21.5494 14.8284 22.4949 15.2199C23.4404 15.6114 24.2486 16.2745 24.8172 17.1254C25.3858 17.9763 25.6893 18.9767 25.6893 20C25.6879 21.3713 25.1428 22.686 24.1734 23.6559C23.204 24.6258 21.8895 25.1716 20.5183 25.1737ZM25.7209 16.1053C25.4677 16.1058 25.2201 16.0312 25.0094 15.8908C24.7987 15.7505 24.6343 15.5508 24.5372 15.317C24.4401 15.0832 24.4145 14.8258 24.4638 14.5775C24.513 14.3291 24.6349 14.101 24.8139 13.922C24.993 13.743 25.2211 13.6211 25.4694 13.5718C25.7178 13.5226 25.9751 13.5481 26.2089 13.6453C26.4427 13.7424 26.6425 13.9067 26.7828 14.1174C26.9231 14.3282 26.9978 14.5758 26.9972 14.829C26.9965 15.1673 26.8618 15.4915 26.6226 15.7307C26.3834 15.9699 26.0592 16.1046 25.7209 16.1053Z" fill="#7F3A6A"/>
<path id="Vector_3" d="M20.5181 0C16.5624 0 12.6957 1.17298 9.40667 3.37061C6.11769 5.56824 3.55424 8.69181 2.04048 12.3463C0.526732 16.0009 0.130665 20.0222 0.90237 23.9018C1.67407 27.7814 3.57889 31.3451 6.37594 34.1421C9.17299 36.9392 12.7366 38.844 16.6163 39.6157C20.4959 40.3874 24.5172 39.9913 28.1717 38.4776C31.8263 36.9638 34.9498 34.4004 37.1475 31.1114C39.3451 27.8224 40.5181 23.9556 40.5181 20C40.5181 14.6957 38.4109 9.60859 34.6602 5.85786C30.9095 2.10714 25.8224 0 20.5181 0ZM30.5181 24.0421C30.5167 25.6218 29.8885 27.1364 28.7715 28.2534C27.6545 29.3705 26.1399 29.9986 24.5602 30H16.476C14.8965 29.9979 13.3823 29.3695 12.2654 28.2527C11.1485 27.1358 10.5202 25.6216 10.5181 24.0421V15.9579C10.5202 14.3784 11.1485 12.8642 12.2654 11.7473C13.3823 10.6305 14.8965 10.0021 16.476 10H24.5602C26.1397 10.0021 27.6539 10.6305 28.7707 11.7473C29.8876 12.8642 30.516 14.3784 30.5181 15.9579V24.0421Z" fill="#7F3A6A"/>
</g>
</g>
</g>
<defs>
<clipPath id="clip0_1_2657">
<rect width="40" height="40" fill="white" transform="translate(0.518066)"/>
</clipPath>
</defs>
</svg>
