<svg width="41" height="40" viewBox="0 0 41 40" fill="none" xmlns="http://www.w3.org/2000/svg">
<g clip-path="url(#clip0_1_2653)">
<path d="M35.0635 0H5.97261C4.52598 0 3.13859 0.574674 2.11567 1.5976C1.09274 2.62053 0.518066 4.00791 0.518066 5.45455L0.518066 34.5455C0.518066 35.9921 1.09274 37.3795 2.11567 38.4024C3.13859 39.4253 4.52598 40 5.97261 40H35.0635C36.5102 40 37.8975 39.4253 38.9205 38.4024C39.9434 37.3795 40.5181 35.9921 40.5181 34.5455V5.45455C40.5181 4.00791 39.9434 2.62053 38.9205 1.5976C37.8975 0.574674 36.5102 0 35.0635 0ZM14.1544 31.6545C14.1547 31.7655 14.1331 31.8754 14.0909 31.9779C14.0487 32.0805 13.9866 32.1737 13.9083 32.2522C13.8299 32.3308 13.7369 32.3931 13.6344 32.4356C13.532 32.4781 13.4222 32.5 13.3112 32.5H9.71807C9.60696 32.5003 9.49688 32.4786 9.39417 32.4363C9.29146 32.3939 9.19814 32.3316 9.11957 32.253C9.041 32.1745 8.97874 32.0812 8.93636 31.9784C8.89398 31.8757 8.87231 31.7657 8.87261 31.6545V16.5909C8.87261 16.3667 8.96169 16.1516 9.12024 15.9931C9.27879 15.8345 9.49384 15.7455 9.71807 15.7455H13.3112C13.5351 15.7461 13.7495 15.8354 13.9076 15.9939C14.0657 16.1524 14.1544 16.3671 14.1544 16.5909V31.6545ZM11.5135 14.3182C10.8393 14.3182 10.1802 14.1182 9.61953 13.7436C9.05891 13.3691 8.62196 12.8366 8.36393 12.2137C8.10591 11.5908 8.03839 10.9053 8.16993 10.244C8.30148 9.58271 8.62616 8.97527 9.10293 8.4985C9.5797 8.02173 10.1871 7.69705 10.8484 7.5655C11.5097 7.43396 12.1952 7.50148 12.8181 7.7595C13.4411 8.01753 13.9735 8.45448 14.3481 9.0151C14.7227 9.57572 14.9226 10.2348 14.9226 10.9091C14.9226 11.8132 14.5634 12.6804 13.9241 13.3197C13.2848 13.959 12.4177 14.3182 11.5135 14.3182ZM32.9362 31.7136C32.9366 31.8158 32.9166 31.917 32.8777 32.0114C32.8387 32.1059 32.7815 32.1917 32.7093 32.2639C32.637 32.3362 32.5512 32.3934 32.4568 32.4324C32.3623 32.4713 32.2611 32.4912 32.159 32.4909H28.2953C28.1932 32.4912 28.092 32.4713 27.9975 32.4324C27.9031 32.3934 27.8173 32.3362 27.7451 32.2639C27.6728 32.1917 27.6156 32.1059 27.5766 32.0114C27.5377 31.917 27.5178 31.8158 27.5181 31.7136V24.6568C27.5181 23.6023 27.8272 20.0386 24.7612 20.0386C22.3862 20.0386 21.9022 22.4773 21.8067 23.5727V31.7227C21.8067 31.9269 21.7264 32.1229 21.5831 32.2684C21.4398 32.4138 21.245 32.497 21.0408 32.5H17.309C17.207 32.5 17.106 32.4799 17.0119 32.4408C16.9177 32.4017 16.8322 32.3444 16.7602 32.2722C16.6882 32.2 16.6311 32.1143 16.5923 32.02C16.5535 31.9257 16.5337 31.8247 16.534 31.7227V16.525C16.5337 16.423 16.5535 16.322 16.5923 16.2277C16.6311 16.1334 16.6882 16.0477 16.7602 15.9755C16.8322 15.9033 16.9177 15.846 17.0119 15.8069C17.106 15.7678 17.207 15.7477 17.309 15.7477H21.0408C21.2469 15.7477 21.4446 15.8296 21.5904 15.9754C21.7362 16.1212 21.8181 16.3189 21.8181 16.525V17.8386C22.6999 16.5136 24.0067 15.4955 26.7953 15.4955C32.9726 15.4955 32.9317 21.2636 32.9317 24.4318L32.9362 31.7136Z" fill="#7F3A6A"/>
</g>
<defs>
<clipPath id="clip0_1_2653">
<rect width="40" height="40" fill="white" transform="translate(0.518066)"/>
</clipPath>
</defs>
</svg>
