<svg width="147" height="36" viewBox="0 0 147 36" fill="none" xmlns="http://www.w3.org/2000/svg">
<path d="M136.426 35.7V29.484L137.392 31.983L130.819 21H135.208L139.954 28.959H137.413L142.18 21H146.212L139.66 31.983L140.584 29.484V35.7H136.426Z" fill="#803A6A"/>
<path d="M123.099 27.447H129.882V30.66H123.099V27.447ZM123.393 35.7H119.235V21H130.764V24.213H123.393V35.7Z" fill="#803A6A"/>
<path d="M112.119 35.7V21H116.277V35.7H112.119Z" fill="#803A6A"/>
<path d="M100.045 32.445L99.8141 27.783L106.135 21H110.713L104.413 27.825L102.103 30.24L100.045 32.445ZM96.3281 35.7V21H100.444V35.7H96.3281ZM106.198 35.7L101.41 29.631L104.119 26.733L111.028 35.7H106.198Z" fill="#DF286A"/>
<path d="M80.7832 35.7V21H87.5032C88.8472 21 90.0022 21.217 90.9682 21.651C91.9482 22.085 92.7042 22.715 93.2362 23.541C93.7682 24.353 94.0342 25.319 94.0342 26.439C94.0342 27.545 93.7682 28.504 93.2362 29.316C92.7042 30.114 91.9482 30.73 90.9682 31.164C90.0022 31.584 88.8472 31.794 87.5032 31.794H83.0932L84.9412 30.051V35.7H80.7832ZM89.8762 35.7L86.2222 30.345H90.6532L94.3282 35.7H89.8762ZM84.9412 30.492L83.0932 28.581H87.2512C88.1192 28.581 88.7632 28.392 89.1832 28.014C89.6172 27.636 89.8342 27.111 89.8342 26.439C89.8342 25.753 89.6172 25.221 89.1832 24.843C88.7632 24.465 88.1192 24.276 87.2512 24.276H83.0932L84.9412 22.365V30.492Z" fill="#803A6A"/>
<path d="M62.5103 35.7L68.9993 21H73.0943L79.6043 35.7H75.2783L70.1963 23.037H71.8343L66.7523 35.7H62.5103ZM66.0593 32.844L67.1303 29.778H74.3123L75.3833 32.844H66.0593Z" fill="#803A6A"/>
<path d="M44.2383 35.7V21H47.6613L53.7513 30.996H51.9453L57.8673 21H61.2903L61.3323 35.7H57.5103L57.4683 26.817H58.1193L53.6883 34.251H51.8403L47.2833 26.817H48.0813V35.7H44.2383Z" fill="#EB8B27"/>
<g clip-path="url(#clip0_7_1322)">
<rect x="29.4419" y="14.099" width="5.47529" height="21.9011" fill="url(#paint0_linear_7_1322)"/>
<rect x="20.9556" y="19.5741" width="5.74905" height="16.4259" fill="url(#paint1_linear_7_1322)"/>
<rect x="12.7422" y="25.0493" width="5.74905" height="10.9506" fill="url(#paint2_linear_7_1322)"/>
<rect x="4.52979" y="28.8822" width="5.74905" height="7.11787" fill="url(#paint3_linear_7_1322)"/>
<path d="M30.2632 12.5932L26.5674 9.58175L30.2632 4.51711L28.4837 3.14829L36.6967 0L35.7385 8.89734L33.959 7.39163L30.2632 12.5932Z" fill="#803A6A"/>
<path d="M28.2101 10.2661C23.1454 16.0152 15.7538 22.3117 1.51807 23.2699C16.9584 24.4745 26.6588 15.8327 29.5789 11.3612L28.2101 10.2661Z" fill="#803A6A"/>
</g>
<defs>
<linearGradient id="paint0_linear_7_1322" x1="30.7409" y1="31.6324" x2="36.4994" y2="30.2792" gradientUnits="userSpaceOnUse">
<stop stop-color="#DF286A"/>
<stop offset="0.0001" stop-color="#DF286A"/>
<stop offset="0.479167" stop-color="#E3484D"/>
<stop offset="0.479267" stop-color="#E3484D"/>
<stop offset="1" stop-color="#E86A2D"/>
</linearGradient>
<linearGradient id="paint1_linear_7_1322" x1="22.3196" y1="32.7242" x2="28.0766" y2="30.83" gradientUnits="userSpaceOnUse">
<stop stop-color="#DF286A"/>
<stop offset="0.0001" stop-color="#DF286A"/>
<stop offset="0.479167" stop-color="#E3484D"/>
<stop offset="0.479267" stop-color="#E3484D"/>
<stop offset="1" stop-color="#E86A2D"/>
</linearGradient>
<linearGradient id="paint2_linear_7_1322" x1="14.1062" y1="33.816" x2="19.2368" y2="31.284" gradientUnits="userSpaceOnUse">
<stop stop-color="#DF286A"/>
<stop offset="0.0001" stop-color="#DF286A"/>
<stop offset="0.479167" stop-color="#E3484D"/>
<stop offset="0.479267" stop-color="#E3484D"/>
<stop offset="1" stop-color="#E86A2D"/>
</linearGradient>
<linearGradient id="paint3_linear_7_1322" x1="5.89378" y1="34.5806" x2="9.94096" y2="31.5077" gradientUnits="userSpaceOnUse">
<stop stop-color="#DF286A"/>
<stop offset="0.0001" stop-color="#DF286A"/>
<stop offset="0.479167" stop-color="#E3484D"/>
<stop offset="0.479267" stop-color="#E3484D"/>
<stop offset="1" stop-color="#E86A2D"/>
</linearGradient>
<clipPath id="clip0_7_1322">
<rect width="36" height="36" fill="white" transform="translate(0.768066)"/>
</clipPath>
</defs>
</svg>
