<svg width="60" height="27" viewBox="0 0 60 27" fill="none" xmlns="http://www.w3.org/2000/svg">
<g id="Sync">
<path d="M11.835 15.4688C11.835 15.1206 11.7814 14.8081 11.6742 14.5313C11.576 14.2456 11.3885 13.9866 11.1117 13.7545C10.835 13.5134 10.4466 13.2768 9.94657 13.0447C9.44657 12.8125 8.79925 12.5714 8.0046 12.3214C7.12068 12.0357 6.28139 11.7143 5.48675 11.3572C4.70103 11 4.0046 10.5848 3.39746 10.1116C2.79925 9.62948 2.32603 9.07145 1.97782 8.43752C1.63853 7.80359 1.46889 7.06698 1.46889 6.2277C1.46889 5.4152 1.64746 4.67859 2.0046 4.01787C2.36175 3.34823 2.86175 2.7768 3.5046 2.30359C4.14746 1.82145 4.90639 1.45091 5.78139 1.19198C6.66532 0.933053 7.63407 0.803589 8.68764 0.803589C10.1251 0.803589 11.3796 1.06252 12.451 1.58037C13.5225 2.09823 14.3528 2.80805 14.9421 3.70984C15.5403 4.61162 15.8394 5.64287 15.8394 6.80359H11.8484C11.8484 6.23216 11.7278 5.73216 11.4867 5.30359C11.2546 4.86609 10.8975 4.52234 10.4153 4.27234C9.9421 4.02234 9.34389 3.89734 8.62068 3.89734C7.92425 3.89734 7.34389 4.00448 6.8796 4.21877C6.41532 4.42412 6.0671 4.70537 5.83496 5.06252C5.60282 5.41073 5.48675 5.80359 5.48675 6.24109C5.48675 6.57145 5.5671 6.87055 5.72782 7.13841C5.89746 7.40627 6.14746 7.65627 6.47782 7.88841C6.80818 8.12055 7.21443 8.3393 7.69657 8.54466C8.17871 8.75002 8.73675 8.95091 9.37068 9.14734C10.4332 9.46877 11.3662 9.83037 12.1698 10.2322C12.9823 10.6339 13.6609 11.0848 14.2055 11.5848C14.7501 12.0848 15.1609 12.6518 15.4376 13.2857C15.7144 13.9197 15.8528 14.6384 15.8528 15.442C15.8528 16.2902 15.6876 17.0491 15.3573 17.7188C15.0269 18.3884 14.5492 18.9554 13.9242 19.4197C13.2992 19.8839 12.5537 20.2366 11.6876 20.4777C10.8216 20.7188 9.85282 20.8393 8.78139 20.8393C7.8171 20.8393 6.86621 20.7143 5.92871 20.4643C4.99121 20.2054 4.13853 19.817 3.37068 19.2991C2.61175 18.7813 2.0046 18.1206 1.54925 17.317C1.09389 16.5134 0.866211 15.5625 0.866211 14.4643H4.89746C4.89746 15.0714 4.99121 15.5848 5.17871 16.0045C5.36621 16.4241 5.6296 16.7634 5.96889 17.0223C6.3171 17.2813 6.72782 17.4688 7.20103 17.5848C7.68318 17.7009 8.20996 17.7589 8.78139 17.7589C9.47782 17.7589 10.0492 17.6607 10.4957 17.4643C10.951 17.2679 11.2859 16.9956 11.5001 16.6473C11.7234 16.2991 11.835 15.9063 11.835 15.4688Z" fill="#27284A"/>
<path d="M22.643 18.9375L26.4867 6.08037H30.6251L24.7992 22.7545C24.6742 23.1206 24.5046 23.5134 24.2903 23.9331C24.085 24.3527 23.8037 24.75 23.4466 25.125C23.0984 25.5089 22.6564 25.8214 22.1207 26.0625C21.5939 26.3036 20.9466 26.4241 20.1787 26.4241C19.8126 26.4241 19.5135 26.4018 19.2814 26.3572C19.0492 26.3125 18.7725 26.25 18.451 26.1697V23.3438C18.5492 23.3438 18.6519 23.3438 18.7591 23.3438C18.8662 23.3527 18.9689 23.3572 19.0671 23.3572C19.576 23.3572 19.9912 23.2991 20.3126 23.1831C20.6341 23.067 20.893 22.8884 21.0894 22.6473C21.2859 22.4152 21.4421 22.1116 21.5582 21.7366L22.643 18.9375ZM21.0359 6.08037L24.1832 16.5804L24.7323 20.6652L22.1073 20.9464L16.8975 6.08037H21.0359Z" fill="#27284A"/>
<path d="M35.9421 9.17412V20.5714H32.085V6.08037H35.701L35.9421 9.17412ZM35.3796 12.817H34.335C34.335 11.7456 34.4734 10.7813 34.7501 9.92412C35.0269 9.05805 35.4153 8.32145 35.9153 7.7143C36.4153 7.09823 37.0091 6.62948 37.6966 6.30805C38.393 5.9777 39.1698 5.81252 40.0269 5.81252C40.7055 5.81252 41.326 5.91073 41.8885 6.10716C42.451 6.30359 42.9332 6.61609 43.335 7.04466C43.7457 7.47323 44.0582 8.0402 44.2725 8.74555C44.4957 9.45091 44.6073 10.3125 44.6073 11.3304V20.5714H40.7234V11.317C40.7234 10.6741 40.6341 10.1741 40.4555 9.81698C40.2769 9.45984 40.0135 9.20984 39.6653 9.06698C39.326 8.9152 38.9064 8.8393 38.4064 8.8393C37.8885 8.8393 37.4376 8.94198 37.0537 9.14734C36.6787 9.3527 36.3662 9.63841 36.1162 10.0045C35.8751 10.3616 35.6921 10.7813 35.5671 11.2634C35.4421 11.7456 35.3796 12.2634 35.3796 12.817Z" fill="#27284A"/>
<path d="M53.5269 17.8259C54.0001 17.8259 54.4198 17.7366 54.7859 17.5581C55.1519 17.3706 55.4376 17.1116 55.643 16.7813C55.8573 16.442 55.9689 16.0447 55.9778 15.5893H59.6073C59.5984 16.6072 59.326 17.5134 58.7903 18.3081C58.2546 19.0938 57.5359 19.7143 56.6341 20.1697C55.7323 20.6161 54.7234 20.8393 53.6073 20.8393C52.4823 20.8393 51.5001 20.6518 50.6609 20.2768C49.8305 19.9018 49.1385 19.3839 48.585 18.7232C48.0314 18.0536 47.6162 17.2768 47.3394 16.3929C47.0626 15.5 46.9242 14.5447 46.9242 13.5268V13.1384C46.9242 12.1116 47.0626 11.1563 47.3394 10.2723C47.6162 9.37948 48.0314 8.6027 48.585 7.94198C49.1385 7.27234 49.8305 6.75002 50.6609 6.37502C51.4912 6.00002 52.4644 5.81252 53.5805 5.81252C54.768 5.81252 55.8082 6.0402 56.701 6.49555C57.6028 6.95091 58.3082 7.6027 58.8171 8.45091C59.335 9.2902 59.5984 10.2857 59.6073 11.4375H55.9778C55.9689 10.9554 55.8662 10.5179 55.6698 10.125C55.4823 9.73216 55.2055 9.41966 54.8394 9.18752C54.4823 8.94645 54.0403 8.82591 53.5135 8.82591C52.951 8.82591 52.4912 8.94645 52.1341 9.18752C51.7769 9.41966 51.5001 9.74109 51.3037 10.1518C51.1073 10.5536 50.9689 11.0134 50.8885 11.5313C50.8171 12.0402 50.7814 12.5759 50.7814 13.1384V13.5268C50.7814 14.0893 50.8171 14.6295 50.8885 15.1473C50.96 15.6652 51.0939 16.125 51.2903 16.5268C51.4957 16.9286 51.7769 17.2456 52.1341 17.4777C52.4912 17.7098 52.9555 17.8259 53.5269 17.8259Z" fill="#27284A"/>
</g>
</svg>
