<svg width="134" height="28" viewBox="0 0 134 28" fill="none" xmlns="http://www.w3.org/2000/svg">
<g id="INFLUENCE">
<path d="M0.394043 27V1.08001H5.64204V27H0.394043Z" fill="#2E0573"/>
<path d="M9.61129 27V1.08001H13.2913L19.0513 14.584V1.08001H23.4033V27H19.8833L14.1233 12.664V27H9.61129Z" fill="#2E0573"/>
<path d="M27.33 27V1.08001H38.274V4.66401H32.61V11.672H37.41V15.352H32.61V27H27.33Z" fill="#2E0573"/>
<path d="M40.9238 27V1.08001H46.2038V23.416H52.2838V27H40.9238Z" fill="#2E0573"/>
<path d="M61.6573 27.352C59.6946 27.352 58.1693 27.0213 57.0813 26.36C55.9933 25.6773 55.2253 24.7067 54.7773 23.448C54.3506 22.168 54.1373 20.6213 54.1373 18.808V1.08001H59.3533V19.544C59.3533 20.184 59.396 20.8133 59.4813 21.432C59.588 22.0507 59.8013 22.552 60.1213 22.936C60.4626 23.32 60.9746 23.512 61.6573 23.512C62.3613 23.512 62.8733 23.32 63.1933 22.936C63.5346 22.552 63.748 22.0507 63.8333 21.432C63.9186 20.8133 63.9613 20.184 63.9613 19.544V1.08001H69.1773V18.808C69.1773 20.6213 68.9533 22.168 68.5053 23.448C68.0786 24.7067 67.3213 25.6773 66.2333 26.36C65.1453 27.0213 63.62 27.352 61.6573 27.352Z" fill="#2E0573"/>
<path d="M72.8613 27V1.08001H84.1573V4.72801H78.1413V11.608H82.7813V15.288H78.1413V23.416H84.2213V27H72.8613Z" fill="#2E0573"/>
<path d="M86.8925 27V1.08001H90.5725L96.3325 14.584V1.08001H100.685V27H97.1645L91.4045 12.664V27H86.8925Z" fill="#2E0573"/>
<path d="M111.811 27.352C109.891 27.352 108.366 26.9893 107.235 26.264C106.126 25.5387 105.347 24.536 104.899 23.256C104.451 21.9547 104.227 20.4507 104.227 18.744V9.43201C104.227 7.64001 104.451 6.10401 104.899 4.82401C105.347 3.52268 106.126 2.52001 107.235 1.81601C108.366 1.11201 109.891 0.76001 111.811 0.76001C113.667 0.76001 115.118 1.06934 116.163 1.68801C117.23 2.30668 117.977 3.18134 118.403 4.31201C118.851 5.44268 119.075 6.75468 119.075 8.24801V10.424H113.955V7.99201C113.955 7.39468 113.923 6.84001 113.859 6.32801C113.795 5.79468 113.614 5.36801 113.315 5.04801C113.038 4.70668 112.547 4.53601 111.843 4.53601C111.139 4.53601 110.627 4.70668 110.307 5.04801C109.987 5.38934 109.785 5.83734 109.699 6.39201C109.614 6.92534 109.571 7.52268 109.571 8.18401V19.96C109.571 20.6853 109.625 21.3253 109.731 21.88C109.859 22.4133 110.083 22.8293 110.403 23.128C110.745 23.4053 111.225 23.544 111.843 23.544C112.526 23.544 113.006 23.384 113.283 23.064C113.582 22.7227 113.763 22.2747 113.827 21.72C113.913 21.1653 113.955 20.5787 113.955 19.96V17.432H119.075V19.576C119.075 21.0907 118.862 22.4347 118.435 23.608C118.009 24.76 117.273 25.6773 116.227 26.36C115.182 27.0213 113.71 27.352 111.811 27.352Z" fill="#2E0573"/>
<path d="M122.299 27V1.08001H133.595V4.72801H127.579V11.608H132.219V15.288H127.579V23.416H133.659V27H122.299Z" fill="#2E0573"/>
</g>
</svg>
