<svg width="185" height="56" viewBox="0 0 185 56" fill="none" xmlns="http://www.w3.org/2000/svg">
<g id="Group 4429">
<g id="Group">
<g id="OBJECTS">
<g id="Group_2">
<g id="Group_3">
<path id="Vector" d="M20.3104 -0.00012207H13.7261L27.2697 26.4793L20.4979 40.3118H28.4723C29.6642 40.3118 30.7526 39.6329 31.2763 38.5617L36.0481 28.8135C36.7679 27.3436 36.7528 25.6194 36.0071 24.1624L25.1662 2.96982C24.2329 1.14647 22.3579 -0.00012207 20.3104 -0.00012207Z" fill="url(#paint0_linear_7_1208)"/>
<path id="Vector_2" d="M20.3104 -0.00012207H13.7261L27.2697 26.4793L20.4979 40.3118H28.4723C29.6642 40.3118 30.7526 39.6329 31.2763 38.5617L36.0481 28.8135C36.7679 27.3436 36.7528 25.6194 36.0071 24.1624L25.1662 2.96982C24.2329 1.14647 22.3579 -0.00012207 20.3104 -0.00012207Z" fill="url(#paint1_linear_7_1208)"/>
<path id="Vector_3" d="M25.1663 2.96973C30.5652 13.5262 30.9877 18.8863 27.2699 26.4793L20.498 40.3117H28.4725C29.6643 40.3117 30.7528 39.6328 31.2765 38.5616L36.0482 28.8134C36.7681 27.3435 36.753 25.6193 36.0073 24.1624L25.1663 2.96973Z" fill="url(#paint2_linear_7_1208)"/>
<path id="Vector_4" style="mix-blend-mode:overlay" d="M25.1663 2.96973C30.5652 13.5262 30.9877 18.8863 27.2699 26.4793L20.498 40.3117H28.4725C29.6643 40.3117 30.7528 39.6328 31.2765 38.5616L36.0482 28.8134C36.7681 27.3435 36.753 25.6193 36.0073 24.1624L25.1663 2.96973Z" fill="url(#paint3_linear_7_1208)"/>
<path id="Vector_5" opacity="0.42" d="M36.007 24.1645L32.9486 18.1837C33.1577 21.6106 32.3301 24.7335 30.5498 28.3673L24.7026 40.3117H28.47C29.6619 40.3117 30.7503 39.6328 31.274 38.5617L36.0457 28.8134C36.7656 27.3436 36.7505 25.6193 36.0048 24.1624L36.007 24.1645Z" fill="url(#paint4_linear_7_1208)"/>
</g>
<g id="Group_4">
<path id="Vector_6" d="M16.7348 56.0002H23.3191L9.77545 29.5208L16.5473 15.6884H8.57281C7.38096 15.6884 6.29255 16.3673 5.76883 17.4384L0.99709 27.1845C0.277234 28.6544 0.292321 30.3786 1.03804 31.8355L11.879 53.0303C12.8122 54.8537 14.6873 56.0002 16.7348 56.0002Z" fill="url(#paint5_linear_7_1208)"/>
<path id="Vector_7" d="M16.7348 56.0002H23.3191L9.77545 29.5208L16.5473 15.6884H8.57281C7.38096 15.6884 6.29255 16.3673 5.76883 17.4384L0.99709 27.1845C0.277234 28.6544 0.292321 30.3786 1.03804 31.8355L11.879 53.0303C12.8122 54.8537 14.6873 56.0002 16.7348 56.0002Z" fill="url(#paint6_linear_7_1208)"/>
<path id="Vector_8" d="M11.8768 53.0277C6.4779 42.4713 6.05547 37.1112 9.77329 29.5182L16.5451 15.6858H8.57066C7.3788 15.6858 6.2904 16.3647 5.76667 17.4359L0.99709 27.1841C0.277234 28.654 0.292321 30.3782 1.03804 31.8351L11.879 53.0299L11.8768 53.0277Z" fill="url(#paint7_linear_7_1208)"/>
<path id="Vector_9" d="M11.8768 53.0277C6.4779 42.4713 6.05547 37.1112 9.77329 29.5182L16.5451 15.6858H8.57066C7.3788 15.6858 6.2904 16.3647 5.76667 17.4359L0.99709 27.1841C0.277234 28.654 0.292321 30.3782 1.03804 31.8351L11.879 53.0299L11.8768 53.0277Z" fill="url(#paint8_linear_7_1208)"/>
<path id="Vector_10" opacity="0.32" d="M1.03588 31.833L4.09419 37.8138C3.88513 34.3891 4.71275 31.264 6.49299 27.6302L12.3402 15.6858H8.57281C7.38096 15.6858 6.29255 16.3647 5.76883 17.4359L0.99709 27.1841C0.277234 28.654 0.292321 30.3782 1.03804 31.8351L1.03588 31.833Z" fill="url(#paint9_linear_7_1208)"/>
</g>
</g>
</g>
</g>
<g id="CODING">
<path d="M62.2188 40.3838C60.4908 40.3838 58.8802 40.1065 57.3868 39.5518C55.9148 38.9758 54.6348 38.1652 53.5468 37.1198C52.4588 36.0745 51.6055 34.8478 50.9868 33.4398C50.3895 32.0318 50.0908 30.4852 50.0908 28.7998C50.0908 27.1145 50.3895 25.5678 50.9868 24.1598C51.6055 22.7518 52.4588 21.5252 53.5468 20.4798C54.6562 19.4345 55.9468 18.6345 57.4188 18.0798C58.8908 17.5038 60.5015 17.2158 62.2508 17.2158C64.1922 17.2158 65.9415 17.5572 67.4988 18.2398C69.0775 18.9012 70.4002 19.8825 71.4668 21.1838L68.1388 24.2558C67.3708 23.3812 66.5175 22.7305 65.5788 22.3038C64.6402 21.8558 63.6162 21.6318 62.5068 21.6318C61.4615 21.6318 60.5015 21.8025 59.6268 22.1438C58.7522 22.4852 57.9948 22.9758 57.3548 23.6158C56.7148 24.2558 56.2135 25.0132 55.8508 25.8878C55.5095 26.7625 55.3388 27.7332 55.3388 28.7998C55.3388 29.8665 55.5095 30.8372 55.8508 31.7118C56.2135 32.5865 56.7148 33.3438 57.3548 33.9838C57.9948 34.6238 58.7522 35.1145 59.6268 35.4558C60.5015 35.7972 61.4615 35.9678 62.5068 35.9678C63.6162 35.9678 64.6402 35.7545 65.5788 35.3278C66.5175 34.8798 67.3708 34.2078 68.1388 33.3118L71.4668 36.3838C70.4002 37.6852 69.0775 38.6772 67.4988 39.3598C65.9415 40.0425 64.1815 40.3838 62.2188 40.3838Z" fill="#3D3B3B"/>
<path d="M85.3788 40.3838C83.6082 40.3838 81.9655 40.0958 80.4508 39.5198C78.9575 38.9438 77.6562 38.1332 76.5468 37.0878C75.4588 36.0425 74.6055 34.8158 73.9868 33.4078C73.3895 31.9998 73.0908 30.4638 73.0908 28.7998C73.0908 27.1358 73.3895 25.5998 73.9868 24.1918C74.6055 22.7838 75.4695 21.5572 76.5788 20.5118C77.6882 19.4665 78.9895 18.6558 80.4828 18.0798C81.9762 17.5038 83.5975 17.2158 85.3468 17.2158C87.1175 17.2158 88.7388 17.5038 90.2108 18.0798C91.7042 18.6558 92.9948 19.4665 94.0828 20.5118C95.1922 21.5572 96.0562 22.7838 96.6748 24.1918C97.2935 25.5785 97.6028 27.1145 97.6028 28.7998C97.6028 30.4638 97.2935 32.0105 96.6748 33.4398C96.0562 34.8478 95.1922 36.0745 94.0828 37.1198C92.9948 38.1438 91.7042 38.9438 90.2108 39.5198C88.7388 40.0958 87.1282 40.3838 85.3788 40.3838ZM85.3468 35.9678C86.3495 35.9678 87.2668 35.7972 88.0988 35.4558C88.9522 35.1145 89.6988 34.6238 90.3388 33.9838C90.9788 33.3438 91.4695 32.5865 91.8108 31.7118C92.1735 30.8372 92.3548 29.8665 92.3548 28.7998C92.3548 27.7332 92.1735 26.7625 91.8108 25.8878C91.4695 25.0132 90.9788 24.2558 90.3388 23.6158C89.7202 22.9758 88.9842 22.4852 88.1308 22.1438C87.2775 21.8025 86.3495 21.6318 85.3468 21.6318C84.3442 21.6318 83.4162 21.8025 82.5628 22.1438C81.7308 22.4852 80.9948 22.9758 80.3548 23.6158C79.7148 24.2558 79.2135 25.0132 78.8508 25.8878C78.5095 26.7625 78.3388 27.7332 78.3388 28.7998C78.3388 29.8452 78.5095 30.8158 78.8508 31.7118C79.2135 32.5865 79.7042 33.3438 80.3228 33.9838C80.9628 34.6238 81.7095 35.1145 82.5628 35.4558C83.4162 35.7972 84.3442 35.9678 85.3468 35.9678Z" fill="#3D3B3B"/>
<path d="M101.499 39.9998V17.5998H111.675C114.107 17.5998 116.251 18.0692 118.107 19.0078C119.963 19.9252 121.413 21.2158 122.459 22.8798C123.504 24.5438 124.027 26.5172 124.027 28.7998C124.027 31.0612 123.504 33.0345 122.459 34.7198C121.413 36.3838 119.963 37.6852 118.107 38.6238C116.251 39.5412 114.107 39.9998 111.675 39.9998H101.499ZM106.683 35.7438H111.419C112.912 35.7438 114.203 35.4665 115.291 34.9118C116.4 34.3358 117.253 33.5252 117.851 32.4798C118.469 31.4345 118.779 30.2078 118.779 28.7998C118.779 27.3705 118.469 26.1438 117.851 25.1198C117.253 24.0745 116.4 23.2745 115.291 22.7198C114.203 22.1438 112.912 21.8558 111.419 21.8558H106.683V35.7438Z" fill="#3D3B3B"/>
<path d="M127.936 39.9998V17.5998H133.12V39.9998H127.936Z" fill="#3D3B3B"/>
<path d="M138.436 39.9998V17.5998H142.724L155.94 33.7278H153.86V17.5998H158.98V39.9998H154.724L141.476 23.8718H143.556V39.9998H138.436Z" fill="#3D3B3B"/>
<path d="M175.096 40.3838C173.325 40.3838 171.693 40.1065 170.2 39.5518C168.728 38.9758 167.437 38.1652 166.328 37.1198C165.24 36.0745 164.387 34.8478 163.768 33.4398C163.171 32.0318 162.872 30.4852 162.872 28.7998C162.872 27.1145 163.171 25.5678 163.768 24.1598C164.387 22.7518 165.251 21.5252 166.36 20.4798C167.469 19.4345 168.771 18.6345 170.264 18.0798C171.757 17.5038 173.4 17.2158 175.192 17.2158C177.176 17.2158 178.957 17.5465 180.536 18.2078C182.136 18.8692 183.48 19.8292 184.568 21.0878L181.24 24.1598C180.429 23.3065 179.544 22.6772 178.584 22.2718C177.624 21.8452 176.579 21.6318 175.448 21.6318C174.36 21.6318 173.368 21.8025 172.472 22.1438C171.576 22.4852 170.797 22.9758 170.136 23.6158C169.496 24.2558 168.995 25.0132 168.632 25.8878C168.291 26.7625 168.12 27.7332 168.12 28.7998C168.12 29.8452 168.291 30.8052 168.632 31.6798C168.995 32.5545 169.496 33.3225 170.136 33.9838C170.797 34.6238 171.565 35.1145 172.44 35.4558C173.336 35.7972 174.317 35.9678 175.384 35.9678C176.408 35.9678 177.4 35.8078 178.36 35.4878C179.341 35.1465 180.291 34.5812 181.208 33.7918L184.152 37.5358C182.936 38.4532 181.517 39.1572 179.896 39.6478C178.296 40.1385 176.696 40.3838 175.096 40.3838ZM179.416 36.8638V28.4478H184.152V37.5358L179.416 36.8638Z" fill="#3D3B3B"/>
</g>
</g>
<defs>
<linearGradient id="paint0_linear_7_1208" x1="13.7261" y1="20.1558" x2="36.5782" y2="20.1558" gradientUnits="userSpaceOnUse">
<stop stop-color="#8A0BFF"/>
<stop offset="1" stop-color="#2A0056"/>
</linearGradient>
<linearGradient id="paint1_linear_7_1208" x1="10.2604" y1="13.6319" x2="29.8668" y2="25.3694" gradientUnits="userSpaceOnUse">
<stop stop-color="#8A0BFF" stop-opacity="0"/>
<stop offset="1" stop-color="#2A0056"/>
</linearGradient>
<linearGradient id="paint2_linear_7_1208" x1="28.5371" y1="40.3117" x2="28.5371" y2="2.96973" gradientUnits="userSpaceOnUse">
<stop stop-color="#A553FF"/>
<stop offset="1" stop-color="#AE38FF"/>
</linearGradient>
<linearGradient id="paint3_linear_7_1208" x1="26.8323" y1="22.936" x2="42.1303" y2="27.8888" gradientUnits="userSpaceOnUse">
<stop stop-color="#AF53FF"/>
<stop offset="0.16" stop-color="#AE4DFF" stop-opacity="0.8"/>
<stop offset="0.39" stop-color="#AE45FF" stop-opacity="0.52"/>
<stop offset="0.6" stop-color="#AE3FFF" stop-opacity="0.29"/>
<stop offset="0.78" stop-color="#AE3BFF" stop-opacity="0.13"/>
<stop offset="0.92" stop-color="#AE38FF" stop-opacity="0.04"/>
<stop offset="1" stop-color="#AE38FF" stop-opacity="0"/>
</linearGradient>
<linearGradient id="paint4_linear_7_1208" x1="16.8058" y1="23.3348" x2="37.0803" y2="33.3093" gradientUnits="userSpaceOnUse">
<stop stop-color="#8A0BFF"/>
<stop offset="1" stop-color="#2A0056" stop-opacity="0"/>
</linearGradient>
<linearGradient id="paint5_linear_7_1208" x1="0.466897" y1="35.8443" x2="23.3191" y2="35.8443" gradientUnits="userSpaceOnUse">
<stop stop-color="#3D0056"/>
<stop offset="1" stop-color="#FF0BA2"/>
</linearGradient>
<linearGradient id="paint6_linear_7_1208" x1="11.4867" y1="30.6695" x2="24.9334" y2="49.1465" gradientUnits="userSpaceOnUse">
<stop stop-color="#3D0056"/>
<stop offset="1" stop-color="#E33FC5"/>
</linearGradient>
<linearGradient id="paint7_linear_7_1208" x1="8.506" y1="53.0277" x2="8.506" y2="15.6858" gradientUnits="userSpaceOnUse">
<stop stop-color="#DF38FF"/>
<stop offset="1" stop-color="#FF39FF"/>
</linearGradient>
<linearGradient id="paint8_linear_7_1208" x1="-3.88241" y1="26.072" x2="23.6876" y2="38.6975" gradientUnits="userSpaceOnUse">
<stop stop-color="#9E0082"/>
<stop offset="1" stop-color="#FF39FF" stop-opacity="0"/>
</linearGradient>
<linearGradient id="paint9_linear_7_1208" x1="20.2392" y1="32.6627" x2="-0.0352771" y2="22.6904" gradientUnits="userSpaceOnUse">
<stop stop-color="#8A0BFF"/>
<stop offset="1" stop-color="#2A0056" stop-opacity="0"/>
</linearGradient>
</defs>
</svg>
